<?xml version="1.0" standalone="no"?>
<!DOCTYPE svg PUBLIC "-//W3C//DTD SVG 20010904//EN"
 "http://www.w3.org/TR/2001/REC-SVG-20010904/DTD/svg10.dtd">
<svg version="1.0" xmlns="http://www.w3.org/2000/svg"
 width="1337.000000pt" height="1337.000000pt" viewBox="0 0 1337.000000 1337.000000"
 preserveAspectRatio="xMidYMid meet">

<g transform="translate(0.000000,1337.000000) scale(0.100000,-0.100000)"
fill="#000000" stroke="none">
<path d="M0 6685 l0 -6685 6685 0 6685 0 0 6685 0 6685 -6685 0 -6685 0 0
-6685z m8218 2286 l-3 -2235 -58 -17 c-32 -10 -67 -25 -76 -33 -10 -9 -24 -16
-32 -16 -8 0 -23 -6 -34 -14 -11 -7 -46 -21 -77 -31 -32 -10 -58 -22 -58 -26
0 -5 -11 -9 -25 -9 -14 0 -25 -4 -25 -10 0 -5 -10 -10 -23 -10 -13 0 -33 -9
-45 -20 -12 -11 -32 -20 -46 -20 -14 0 -27 -4 -30 -9 -3 -5 -22 -12 -41 -15
-19 -4 -35 -11 -35 -16 0 -6 -11 -10 -25 -10 -14 0 -25 -4 -25 -10 0 -5 -6
-10 -12 -10 -7 0 -25 -6 -40 -14 -15 -8 -40 -17 -57 -21 -17 -4 -31 -11 -31
-16 0 -5 -6 -9 -14 -9 -7 0 -33 -11 -57 -23 -24 -13 -62 -27 -84 -31 -22 -4
-51 -16 -66 -27 -15 -10 -33 -19 -41 -19 -8 0 -18 -4 -24 -9 -5 -5 -35 -16
-66 -26 -32 -10 -63 -24 -69 -31 -6 -8 -18 -14 -26 -14 -8 0 -27 -6 -41 -14
-15 -8 -51 -22 -79 -31 -29 -9 -53 -20 -53 -25 0 -4 -16 -11 -35 -14 -20 -4
-50 -15 -68 -26 -18 -10 -47 -21 -64 -25 -18 -4 -33 -10 -33 -15 0 -4 -16 -11
-35 -14 -19 -4 -35 -11 -35 -16 0 -6 -11 -10 -25 -10 -14 0 -25 -4 -25 -10 0
-5 -16 -12 -35 -16 -19 -3 -35 -10 -35 -14 0 -4 -16 -11 -35 -14 -19 -4 -35
-11 -35 -16 0 -6 -11 -10 -24 -10 -13 0 -26 -5 -28 -11 -6 -19 -83 -23 -100
-5 -9 9 -28 16 -42 16 -14 0 -26 4 -26 10 0 5 -18 13 -40 16 -22 4 -40 10 -40
14 0 4 -16 11 -35 14 -19 4 -35 11 -35 16 0 6 -11 10 -25 10 -14 0 -25 4 -25
9 0 5 -18 12 -40 16 -22 4 -40 10 -40 15 0 5 -23 13 -52 20 -29 6 -55 15 -58
20 -3 5 -28 15 -55 22 -28 7 -52 15 -55 18 -9 10 -61 30 -76 30 -8 0 -34 9
-56 20 -23 11 -48 20 -57 20 -8 0 -22 6 -30 14 -9 7 -56 26 -106 41 -49 16
-110 39 -134 52 -24 13 -57 23 -72 23 -16 0 -29 4 -29 8 0 4 -25 16 -55 27
-30 10 -55 22 -55 27 0 4 -18 11 -40 14 -22 4 -40 10 -40 14 0 4 -18 10 -40
14 -22 3 -40 11 -40 16 0 6 -11 10 -25 10 -14 0 -25 4 -25 9 0 5 -18 12 -40
16 -22 4 -40 11 -40 16 0 5 -16 9 -35 9 -19 0 -35 3 -35 8 0 10 -50 32 -72 32
-10 0 -18 5 -18 10 0 6 -11 10 -25 10 -14 0 -25 4 -25 8 0 5 -34 19 -74 31
-41 11 -78 26 -81 31 -3 6 -17 10 -31 10 -13 0 -24 4 -24 8 0 4 -16 14 -35 21
l-35 12 0 1292 c0 711 -3 1721 -7 2244 l-6 953 1979 2 c1088 2 2003 3 2032 3
l52 0 -2 -2234z m-2657 -3504 c11 -20 -2 -38 -47 -63 -15 -9 -20 -24 -22 -73
l-3 -62 43 6 c59 8 74 -4 62 -47 -9 -31 -13 -33 -57 -36 -40 -3 -48 -7 -53
-28 -12 -47 4 -89 44 -115 30 -20 38 -31 40 -62 3 -31 0 -37 -17 -37 -11 0
-26 7 -35 15 -34 35 -36 20 -36 -280 l0 -295 -45 0 -45 0 0 63 c1 34 5 202 9
372 5 171 7 323 4 337 -5 25 -10 27 -57 30 l-51 3 0 40 0 40 54 2 c30 2 55 4
56 5 1 2 5 22 9 46 l6 42 -60 0 -60 0 0 39 0 39 78 3 c66 3 83 8 112 31 36 28
50 26 71 -15z m418 -285 l-4 -308 30 4 c17 2 40 8 52 14 29 14 35 8 37 -39 l1
-37 -62 -14 -63 -14 -2 -151 c-1 -84 -2 -163 -3 -177 -1 -14 -2 -37 -3 -52 -2
-25 -6 -28 -38 -28 l-37 0 5 190 c5 172 4 190 -11 186 -42 -12 -142 -36 -196
-46 -33 -7 -68 -16 -77 -21 -16 -9 -18 -5 -18 30 0 48 6 52 110 76 41 10 93
24 115 31 23 8 51 14 63 14 22 0 22 0 23 203 1 111 0 217 -1 236 -1 19 1 74 5
123 l7 88 35 0 35 0 -3 -308z m851 178 l0 -130 175 0 175 0 0 -44 0 -44 -170
5 -170 6 0 -89 c1 -113 31 -241 76 -322 13 -23 24 -49 24 -58 0 -8 28 -43 63
-77 34 -34 73 -77 85 -94 13 -18 28 -33 33 -33 13 0 39 -25 39 -38 0 -5 -11
-14 -25 -20 -14 -6 -25 -16 -25 -22 0 -18 -22 -11 -46 16 -13 14 -24 27 -24
30 0 10 -29 34 -40 34 -14 0 -40 25 -40 37 0 5 -8 18 -18 29 -63 70 -111 144
-131 206 -14 41 -41 43 -41 3 0 -13 -7 -30 -15 -39 -8 -8 -15 -22 -15 -31 0
-9 -5 -21 -10 -28 -39 -46 -50 -61 -50 -68 0 -5 -38 -47 -85 -94 -47 -47 -85
-90 -85 -95 0 -17 -24 -10 -54 14 -21 18 -26 29 -21 45 3 11 12 21 18 21 7 0
23 15 37 32 14 18 39 45 55 60 61 57 94 97 101 126 4 12 9 22 14 22 4 0 13 19
20 43 7 23 15 44 19 47 15 10 34 128 38 234 l4 109 -170 -6 -171 -5 0 44 0 44
170 0 170 0 0 130 0 130 45 0 45 0 0 -130z m1030 89 c0 -33 6 -47 30 -69 17
-15 30 -35 30 -43 0 -19 -53 -54 -58 -39 -2 7 -10 12 -17 12 -8 0 -17 9 -20
20 -3 11 -11 20 -17 20 -21 0 -37 36 -38 81 0 25 3 49 7 52 3 4 24 7 45 7 38
0 38 0 38 -41z m282 -13 c-1 -27 -9 -57 -17 -66 -8 -9 -15 -26 -15 -38 0 -12
-5 -22 -11 -22 -15 0 -59 -55 -59 -75 0 -3 41 -5 90 -5 l90 0 0 -100 0 -100
-49 0 -49 0 5 60 6 60 -199 2 c-110 1 -233 2 -274 2 -59 1 -75 -2 -77 -14 -1
-8 -5 -36 -8 -62 l-6 -48 -40 0 -39 0 0 99 0 98 48 7 c26 3 105 3 176 1 102
-5 139 -2 177 10 27 9 49 23 49 30 0 7 14 19 30 27 17 7 33 21 36 31 3 10 15
26 26 37 14 13 22 36 26 70 l5 51 41 -3 41 -3 -3 -49z m-3222 4 l0 -40 -115 0
-115 0 0 -74 0 -73 112 -6 c91 -5 115 -9 125 -23 10 -14 13 -110 13 -426 l0
-408 -369 0 c-286 0 -370 3 -373 13 -2 6 -3 73 -3 147 1 74 2 262 3 418 l2
282 105 0 105 0 0 74 0 73 -100 8 -100 7 0 34 0 34 355 0 355 0 0 -40z m2750
1 c0 -29 7 -48 25 -67 30 -33 31 -44 5 -67 -17 -14 -24 -15 -42 -5 -50 29 -67
60 -68 121 l0 57 40 0 c40 0 40 0 40 -39z m-1950 -50 c0 -22 4 -51 10 -66 11
-29 58 -74 78 -75 16 0 16 -41 -1 -64 -18 -25 -46 -15 -97 34 -44 42 -59 72
-70 140 -10 61 -5 70 41 70 39 0 39 0 39 -39z m-30 -273 c1 -46 26 -88 54 -88
9 0 16 -3 16 -8 0 -4 14 -13 30 -20 35 -16 38 -39 10 -69 -21 -23 -58 -21 -67
3 -2 7 -18 16 -33 19 -16 4 -32 14 -35 24 -3 10 -13 26 -23 37 -29 34 -42 62
-42 94 0 25 5 31 33 39 54 16 57 14 57 -31z m-330 -189 c0 -198 -1 -214 -22
-250 -24 -43 -48 -57 -60 -35 -5 8 -16 23 -25 32 -16 16 -16 18 6 35 25 21 27
41 30 287 l1 142 35 0 35 0 0 -211z m2669 136 c14 -8 14 -52 1 -60 -5 -3 -17
-21 -26 -40 -9 -19 -20 -35 -24 -35 -4 0 -22 -14 -39 -32 -24 -24 -31 -41 -31
-70 l0 -38 88 0 c48 0 117 -3 155 -7 l67 -6 0 -35 0 -35 -154 6 -154 5 -6 -46
c-3 -26 -9 -80 -12 -119 -4 -40 -10 -73 -15 -73 -4 0 -11 -9 -14 -21 -4 -12
-14 -29 -23 -39 -10 -10 -23 -26 -30 -34 -14 -18 -42 -22 -42 -6 0 6 -9 19
-20 30 -20 20 -19 20 27 67 l47 48 1 95 0 95 -177 3 -178 2 0 41 0 41 178 -3
177 -4 5 56 c4 48 10 60 36 83 18 14 37 26 43 26 6 0 11 7 11 15 0 8 5 15 10
15 6 0 10 5 10 10 0 6 -52 10 -135 10 l-135 0 0 28 c0 16 2 31 5 34 8 7 342 1
354 -7z m-3650 -921 c30 -6 32 -9 29 -48 l-3 -41 -60 0 c-58 0 -60 -1 -63 -27
-4 -29 24 -68 48 -68 8 0 21 -9 28 -20 7 -11 21 -20 32 -20 11 0 20 -7 20 -15
0 -7 8 -18 17 -24 13 -7 18 -26 21 -78 4 -67 3 -71 -27 -101 -37 -36 -92 -48
-177 -37 l-56 7 7 36 c8 46 7 45 39 32 39 -15 105 -12 122 4 24 24 18 89 -11
114 -14 12 -29 22 -34 22 -4 0 -16 9 -26 20 -10 11 -24 20 -31 20 -55 0 -77
142 -30 193 31 33 87 44 155 31z m1151 -205 c0 -214 2 -219 75 -219 42 0 44 1
54 38 6 20 11 110 11 198 0 174 0 174 55 174 22 0 23 -4 30 -102 15 -217 -19
-368 -82 -368 -7 0 -13 -4 -13 -10 0 -6 -27 -10 -60 -10 -33 0 -60 4 -60 9 0
5 -11 12 -24 15 -31 8 -62 73 -70 148 -3 32 -3 116 1 188 l6 131 39 -3 38 -2
0 -187z m-670 102 l0 -38 -50 -5 c-34 -4 -55 -11 -65 -24 -21 -28 -24 -205 -4
-212 5 -2 16 -10 23 -18 8 -8 32 -14 54 -14 34 0 41 -4 46 -25 11 -42 -1 -48
-71 -42 -54 5 -69 11 -96 38 l-32 32 0 130 c0 95 3 131 13 135 6 2 12 9 12 16
0 25 79 63 138 65 31 1 32 0 32 -38z m282 23 c40 -21 78 -59 78 -78 0 -8 5
-18 10 -21 6 -3 10 -44 10 -91 0 -49 -4 -84 -10 -84 -5 0 -10 -12 -10 -26 0
-14 -7 -32 -15 -40 -8 -8 -21 -25 -30 -37 -14 -20 -24 -22 -93 -22 -69 0 -81
3 -105 25 -96 90 -61 346 51 366 15 3 29 9 30 15 6 14 50 11 84 -7z m-552
-112 c0 -60 -3 -150 -6 -200 l-7 -92 -40 0 -40 0 7 83 c3 45 9 135 12 200 l7
117 33 0 34 0 0 -108z m2548 87 c20 -13 22 -22 22 -100 0 -82 -1 -86 -25 -97
-14 -6 -25 -16 -25 -21 0 -5 11 -18 25 -29 14 -11 25 -26 25 -34 0 -8 14 -34
30 -56 l30 -42 -38 0 c-44 0 -75 22 -87 60 -12 40 -59 100 -75 97 -11 -2 -15
-18 -17 -62 -1 -33 -2 -68 -2 -77 -1 -13 -9 -18 -31 -18 l-30 0 0 193 c0 107
3 196 6 199 11 12 169 1 192 -13z m863 -1 c5 -7 9 -18 9 -24 0 -6 6 -17 14
-23 8 -7 18 -26 21 -42 13 -60 45 -43 66 36 6 22 16 46 21 53 12 14 88 16 88
2 0 -5 -4 -10 -8 -10 -4 0 -14 -21 -21 -47 -8 -25 -21 -53 -30 -62 -35 -36
-54 -96 -59 -183 -5 -92 -13 -105 -55 -92 -18 6 -19 12 -12 88 6 73 4 84 -14
107 -11 14 -23 38 -26 52 -4 15 -11 27 -15 27 -4 0 -11 16 -14 35 -4 19 -10
35 -15 35 -10 0 -33 49 -27 59 8 12 68 4 77 -11z m-2081 -2 c0 -8 14 -40 30
-71 17 -31 30 -63 30 -69 0 -7 9 -23 20 -36 l20 -23 0 106 0 107 40 0 40 0 0
-189 c0 -104 -3 -196 -6 -205 -11 -29 -74 -10 -74 23 0 5 -6 16 -13 23 -15 15
-80 146 -83 168 -2 8 -8 16 -13 18 -6 2 -11 10 -11 18 0 8 -4 14 -8 14 -5 0
-7 -53 -5 -117 4 -135 -4 -163 -49 -163 l-28 0 0 205 0 205 55 0 c40 0 55 -4
55 -14z m320 -181 l0 -195 -35 0 -35 0 0 195 0 195 35 0 35 0 0 -195z m148
113 c13 -46 32 -103 44 -128 12 -25 20 -50 19 -57 -1 -6 3 -14 9 -18 6 -4 10
4 10 19 0 14 5 26 10 26 6 0 10 14 10 30 0 17 7 47 15 67 8 19 15 46 15 59 0
12 5 26 10 29 6 3 10 17 10 31 0 21 4 24 40 24 39 0 40 -1 34 -27 -4 -16 -11
-36 -15 -45 -5 -9 -9 -26 -9 -37 0 -12 -4 -21 -8 -21 -11 0 -42 -99 -42 -133
0 -15 -4 -27 -10 -27 -5 0 -10 -11 -10 -24 0 -14 -4 -36 -10 -50 -8 -22 -16
-26 -48 -26 -34 0 -39 4 -50 33 -6 17 -11 34 -11 37 1 3 -6 22 -14 43 -9 20
-14 37 -11 37 3 0 -2 12 -10 28 -8 15 -24 50 -37 77 -12 28 -25 58 -30 67 -5
10 -9 29 -9 43 0 22 4 25 38 25 l37 0 23 -82z m492 52 l0 -30 -85 0 -85 0 0
-45 0 -45 45 0 c45 0 45 0 45 -35 0 -35 0 -35 -45 -35 l-45 0 0 -55 0 -55 84
0 c67 0 85 -3 90 -16 16 -42 11 -44 -114 -44 -66 0 -120 3 -120 8 -1 26 -1
359 -1 370 1 9 31 12 116 12 l115 0 0 -30z m560 0 c0 -28 -3 -30 -37 -30 -37
-1 -83 -27 -83 -48 0 -6 12 -14 28 -20 31 -11 111 -85 130 -120 14 -29 16 -72
2 -72 -5 0 -10 -6 -10 -13 0 -18 -28 -40 -79 -59 -37 -15 -49 -15 -82 -5 -42
13 -45 18 -29 48 8 14 21 19 51 19 85 0 105 45 44 99 -20 17 -40 31 -46 31
-18 0 -89 81 -89 101 0 10 5 19 10 19 6 0 10 5 10 11 0 7 12 24 28 40 24 24
35 28 90 28 l62 1 0 -30z m150 -165 l0 -195 -35 0 -35 0 0 195 0 195 35 0 35
0 0 -195z m290 165 c0 -28 -2 -30 -40 -30 l-40 0 0 -165 c0 -174 2 -167 -45
-167 -8 0 -19 0 -25 1 -6 1 -10 64 -10 166 l0 165 -40 0 c-38 0 -40 2 -40 30
l0 30 120 0 120 0 0 -30z m-3881 -1079 c10 -6 12 -20 8 -45 -5 -33 -4 -36 19
-36 42 0 27 -44 -20 -60 -22 -7 -35 -20 -44 -42 -15 -40 -10 -44 28 -28 25 10
35 10 63 -4 l34 -16 -4 -122 c-2 -68 -5 -137 -6 -153 l-2 -31 80 3 c94 3 137
-10 133 -41 -2 -16 -9 -20 -28 -18 -64 8 -301 3 -353 -8 -47 -9 -56 -14 -47
-25 21 -25 -10 -67 -70 -97 -30 -15 -59 -28 -64 -28 -5 0 19 29 52 64 34 35
62 67 62 70 0 2 -30 -4 -67 -15 -115 -34 -144 -35 -171 -6 l-23 24 63 12 c104
19 157 34 152 42 -2 4 -1 73 2 153 7 133 9 146 26 146 14 0 18 -8 18 -35 0
-34 1 -35 28 -29 15 4 35 11 45 16 37 19 53 -23 16 -43 -12 -6 -36 -8 -54 -5
-31 6 -33 5 -39 -31 -3 -21 -6 -52 -6 -70 l0 -32 41 14 c47 17 79 19 79 6 0
-18 -30 -33 -62 -31 -52 3 -55 2 -67 -32 -14 -39 -10 -43 30 -29 18 6 50 11
73 11 23 0 52 3 65 7 l24 6 -6 139 c-3 77 -7 141 -10 144 -2 2 -27 -3 -55 -12
-49 -16 -82 -14 -82 5 0 5 9 11 20 14 21 5 48 53 36 64 -4 4 -21 2 -38 -5 -29
-10 -33 -9 -54 15 l-23 27 67 23 c37 12 68 23 69 23 5 1 23 67 23 86 0 25 15
30 39 15z m-852 -37 c3 -9 1 -30 -4 -47 -14 -45 -6 -57 34 -57 35 0 35 -1 29
-32 -6 -31 -39 -71 -66 -80 -8 -2 -13 -74 -17 -224 -5 -191 -8 -225 -24 -245
l-18 -24 -39 43 c-21 23 -47 42 -58 43 -18 0 -18 1 1 9 11 4 32 6 46 3 34 -6
39 8 46 132 l6 100 -113 -117 c-61 -65 -119 -118 -129 -118 -21 0 -51 50 -51
86 0 25 1 26 18 12 15 -14 21 -13 58 11 63 40 94 62 157 110 57 43 57 43 57
97 0 30 -2 54 -4 54 -2 0 -19 -7 -39 -15 -31 -13 -37 -13 -54 3 -11 9 -27 29
-36 43 l-17 26 75 28 75 29 0 57 c0 32 -5 61 -11 65 -16 10 10 24 44 24 16 0
30 -7 34 -16z m2521 -16 c17 -17 15 -49 -6 -76 l-17 -22 -38 25 c-20 14 -37
31 -37 37 0 6 -7 20 -17 30 -15 17 -14 18 43 18 33 0 65 -5 72 -12z m-859 -12
c12 -14 5 -73 -12 -94 -15 -20 -1 -25 34 -13 38 13 98 14 117 2 23 -14 11 -74
-18 -88 -14 -6 -38 -25 -53 -41 l-28 -29 88 -37 c48 -20 97 -41 108 -47 11 -5
64 -24 118 -43 102 -35 124 -46 89 -46 -34 0 -52 -11 -68 -41 -19 -37 -44 -37
-117 1 -52 27 -80 46 -210 147 -49 38 -58 40 -82 13 -10 -11 -23 -20 -30 -20
-7 0 -20 -9 -30 -20 -10 -11 -24 -20 -30 -20 -7 0 -18 -6 -24 -14 -16 -20
-105 -62 -192 -91 -82 -28 -122 -32 -69 -7 198 93 218 104 308 176 57 46 61
52 46 63 -17 12 -17 13 2 13 11 0 33 14 49 30 27 28 28 30 7 30 -11 0 -25 8
-31 17 -8 15 -17 9 -64 -41 -52 -56 -77 -65 -77 -29 0 18 61 140 90 183 9 14
16 33 15 43 -3 13 4 17 25 17 15 0 33 -6 39 -14z m-1444 -12 c36 -23 32 -62
-12 -123 -9 -12 -45 39 -58 82 -8 28 -15 52 -15 54 0 10 65 0 85 -13z m3578
-36 c40 -21 46 -38 30 -84 -12 -36 -19 -43 -56 -54 -26 -7 -47 -20 -52 -32 -6
-12 -17 -24 -25 -28 -8 -4 -35 -17 -59 -29 -35 -19 -45 -21 -52 -10 -5 8 -9 9
-9 3 0 -6 -16 -31 -35 -55 -19 -24 -35 -49 -35 -54 0 -20 -85 -94 -141 -123
-39 -20 -65 -28 -87 -24 -18 2 -32 8 -32 12 0 5 33 25 74 45 41 20 92 52 115
71 41 36 111 142 111 170 0 20 60 94 76 94 8 0 11 -6 7 -17 -5 -12 -3 -14 8
-8 39 24 88 69 92 86 4 16 1 18 -21 12 -15 -3 -38 -14 -52 -23 -14 -9 -40 -23
-57 -31 -18 -8 -33 -17 -33 -21 0 -13 -30 -9 -44 5 -7 7 -18 22 -25 35 -11 20
-10 22 16 22 31 0 182 35 191 44 10 10 73 6 95 -6z m1741 -29 c30 -24 32 -42
11 -93 -10 -24 -22 -36 -33 -35 -35 4 -83 -13 -78 -27 10 -27 -8 -46 -71 -75
-35 -16 -68 -29 -73 -29 -4 0 -26 -28 -46 -62 -21 -35 -45 -70 -54 -78 -23
-24 -83 -66 -105 -74 -112 -44 -145 -55 -145 -47 0 4 45 39 100 76 84 57 107
79 141 133 36 56 89 180 89 206 0 5 -7 3 -15 -4 -13 -11 -19 -8 -40 14 -33 36
-32 55 3 54 15 -1 54 8 87 19 146 50 189 54 229 22z m827 -9 c26 -15 24 -55
-6 -112 l-25 -48 60 7 c69 7 91 -6 116 -66 20 -49 17 -78 -11 -109 -14 -15
-48 -73 -76 -128 -28 -56 -63 -117 -79 -135 -28 -34 -28 -34 -49 -15 -12 11
-21 25 -21 33 0 7 -4 13 -10 13 -5 0 -10 10 -10 22 0 12 -10 32 -22 46 l-23
24 28 -7 c52 -13 59 -11 83 35 31 59 84 207 76 214 -7 7 -50 8 -77 0 -12 -3
-27 -20 -34 -37 -8 -18 -20 -39 -27 -47 -7 -8 -26 -40 -41 -70 -83 -157 -157
-227 -258 -245 l-40 -7 56 58 c31 33 80 95 109 139 90 136 108 175 73 156 -74
-38 -142 -71 -146 -71 -10 0 -67 88 -67 103 0 18 24 29 73 32 35 3 156 23 185
31 16 4 83 144 76 156 -20 32 42 51 87 28z m-3618 -24 c20 -14 27 -26 27 -51
0 -39 -30 -71 -49 -52 -6 6 -40 14 -74 17 l-62 5 48 29 c52 31 49 46 -8 46
-31 0 -176 -36 -258 -65 -55 -18 -102 -17 -102 4 0 15 74 39 200 65 139 30
234 30 278 2z m-527 -100 c-7 -96 -12 -116 -32 -116 -13 0 -16 9 -17 55 0 22
43 145 51 145 3 0 2 -38 -2 -84z m323 9 c3 -3 -3 -34 -13 -68 -10 -34 -20 -77
-23 -95 -3 -18 -9 -35 -14 -38 -5 -3 -9 -10 -9 -16 0 -7 19 -8 58 -3 89 12 96
12 110 2 6 -5 12 -18 12 -28 0 -20 -4 -22 -65 -24 -22 0 -61 -5 -87 -9 -42 -7
-48 -12 -70 -54 -41 -81 -113 -127 -215 -138 -54 -5 -57 -4 -39 10 11 9 27 16
35 16 44 0 178 107 158 126 -2 3 -26 0 -51 -7 -41 -10 -49 -9 -66 6 -28 26
-25 31 25 44 25 6 65 16 90 22 36 9 45 16 45 33 0 12 10 60 21 106 16 63 19
88 11 101 -9 14 -8 19 6 23 19 5 72 -1 81 -9z m-2391 -28 c4 -30 -13 -59 -32
-55 -19 3 -96 -22 -96 -32 0 -5 11 -15 24 -22 13 -7 55 -34 92 -59 38 -25 103
-59 144 -74 41 -16 79 -32 83 -35 4 -4 -13 -20 -38 -35 -25 -16 -45 -33 -45
-37 0 -4 -12 -8 -27 -8 -33 0 -152 116 -209 205 -22 33 -43 63 -49 67 -5 4 -7
8 -5 10 3 2 26 19 52 38 26 19 48 43 48 53 0 14 7 18 28 15 21 -2 28 -9 30
-31z m2236 7 c27 -10 17 -74 -11 -74 -22 0 -74 40 -67 51 6 10 40 27 56 28 3
1 13 -2 22 -5z m2187 -68 c16 14 17 11 13 -37 -2 -29 -11 -60 -20 -70 -15 -16
-18 -17 -40 -3 -33 22 -64 79 -64 120 l0 34 47 -29 c43 -27 49 -28 64 -15z
m246 -15 c27 -32 29 -81 4 -112 l-18 -23 -16 25 c-14 22 -47 135 -47 161 0 14
50 -19 77 -51z m-4999 -4 c8 -9 7 -20 -1 -37 -17 -35 -59 -38 -93 -7 l-26 24
23 17 c28 19 82 21 97 3z m982 -21 c0 -17 -43 -46 -68 -46 -18 0 -50 26 -41
34 9 8 66 24 87 25 12 1 22 -5 22 -13z m3080 -6 c136 -15 220 -31 223 -43 1
-5 -16 -15 -38 -23 -22 -7 -49 -24 -61 -37 -29 -34 -57 -41 -114 -27 -40 10
-59 23 -105 71 -64 69 -68 84 -22 75 17 -4 70 -11 117 -16z m-1522 -25 c1 -11
-3 -28 -10 -38 -13 -17 -15 -17 -60 0 l-47 17 32 23 c39 27 81 27 85 -2z
m3124 5 c24 -7 48 -15 53 -19 10 -7 174 -76 243 -101 39 -15 40 -23 5 -40 -16
-8 -37 -25 -49 -39 -20 -23 -23 -24 -53 -11 -17 7 -48 26 -68 42 -57 45 -208
192 -190 185 9 -3 35 -11 59 -17z m-3762 -29 c0 -23 5 -27 31 -29 37 -3 89
-37 89 -59 0 -20 -30 -83 -40 -83 -4 0 -27 -26 -51 -57 -24 -32 -46 -62 -51
-67 -11 -13 -36 11 -59 57 -23 45 -19 55 16 39 24 -11 26 -9 50 38 34 67 33
81 -7 76 -26 -3 -35 -11 -60 -59 -31 -59 -81 -104 -138 -124 -52 -19 -69 -16
-34 6 50 30 144 130 144 153 0 12 -25 10 -54 -4 -22 -9 -29 -8 -46 7 -30 27
-24 42 18 48 121 19 126 22 128 65 1 15 2 27 3 28 1 0 15 -1 31 -4 25 -4 30
-9 30 -31z m2630 -5 c18 -56 69 -94 192 -144 15 -6 61 -14 102 -18 71 -6 76
-5 76 13 0 10 -7 28 -15 39 -23 30 -18 33 23 13 20 -10 48 -20 62 -22 22 -4
25 -9 23 -42 -2 -21 -8 -44 -15 -53 -62 -74 -288 -42 -391 56 -46 44 -87 120
-87 162 0 40 16 38 30 -4z m-110 -83 c-14 -90 -25 -107 -47 -77 -20 26 -11 99
14 127 11 12 23 31 28 42 15 40 18 -8 5 -92z m-540 22 c0 -13 -9 -33 -20 -46
l-19 -24 -46 47 -46 47 43 9 c53 11 88 -2 88 -33z m1726 14 c17 -14 18 -53 2
-67 -20 -16 -88 -26 -88 -13 0 6 5 11 10 11 6 0 10 5 10 12 0 6 -3 9 -6 5 -6
-6 -64 19 -64 28 0 2 11 10 25 18 34 17 93 21 111 6z m-2830 -117 c5 -5 30
-17 57 -26 53 -20 64 -41 50 -97 -14 -51 -47 -47 -88 12 -18 25 -44 58 -59 74
-14 15 -26 32 -26 36 0 11 53 12 66 1z m-1649 -29 c31 -15 34 -19 29 -47 -7
-35 -20 -51 -34 -42 -6 3 -26 29 -46 56 l-36 50 26 0 c14 0 42 -7 61 -17z
m2699 -8 c32 -7 74 -44 74 -66 0 -32 -29 -81 -47 -77 -9 2 -31 26 -50 53 -19
28 -45 62 -58 77 l-25 26 43 -5 c23 -2 51 -6 63 -8z m1752 -25 c55 -14 73 -47
48 -85 -9 -14 -24 -25 -34 -25 -18 0 -87 68 -110 107 -19 36 -28 36 96 3z"/>
<path d="M4245 11128 c-3 -7 -4 -998 -3 -2202 l3 -2190 47 -12 c26 -6 68 -21
95 -33 91 -42 108 -48 166 -65 31 -9 57 -21 57 -27 0 -5 11 -9 24 -9 14 0 28
-4 31 -10 3 -6 17 -10 31 -10 13 0 24 -4 24 -10 0 -5 7 -10 15 -10 8 0 15 -4
15 -10 0 -5 16 -10 35 -10 19 0 35 -4 35 -9 0 -5 20 -12 45 -16 25 -3 43 -10
40 -16 -4 -5 8 -9 24 -9 17 0 31 -4 31 -9 0 -5 15 -13 33 -16 17 -4 37 -11 42
-15 6 -4 25 -11 43 -15 17 -3 32 -10 32 -14 0 -3 20 -13 46 -20 25 -7 51 -20
59 -27 7 -8 25 -14 39 -14 15 0 68 -18 120 -40 51 -22 99 -40 105 -40 7 0 36
-11 64 -24 66 -30 150 -62 205 -77 23 -7 42 -15 42 -19 0 -4 17 -11 38 -15 20
-3 47 -13 59 -20 11 -8 42 -19 67 -26 25 -6 44 -15 41 -19 -2 -4 14 -10 37
-13 24 -3 44 -11 46 -16 2 -6 15 -11 28 -11 13 0 24 -4 24 -10 0 -5 16 -12 35
-16 19 -3 35 -10 35 -15 0 -5 14 -9 30 -9 17 0 30 4 30 9 0 5 14 12 30 16 17
4 30 11 30 16 0 5 12 9 26 9 14 0 32 7 40 15 9 8 26 15 40 15 13 0 24 4 24 10
0 5 19 14 42 20 22 7 47 18 54 25 8 7 32 16 54 20 22 4 40 10 40 14 0 4 19 13
43 20 23 7 60 22 83 32 23 10 48 19 57 19 8 0 17 6 20 14 3 7 26 19 52 25 26
7 84 30 130 51 45 22 94 40 109 40 14 0 26 4 26 8 0 4 23 16 50 26 28 10 50
22 50 26 0 5 18 11 40 15 22 4 40 10 40 15 0 4 16 11 35 14 19 4 35 11 35 16
0 6 11 10 25 10 14 0 25 4 25 10 0 5 16 12 35 16 19 3 35 10 35 15 0 5 14 9
30 9 17 0 30 5 30 10 0 6 7 10 15 10 8 0 15 5 15 10 0 6 11 10 25 10 14 0 25
5 25 10 0 6 11 10 25 10 14 0 25 4 25 8 0 5 30 19 67 31 38 13 100 39 140 57
40 19 76 34 80 34 10 0 132 51 151 63 9 7 12 454 12 2183 l0 2174 -1960 0
c-1559 0 -1962 -3 -1965 -12z m3723 -2175 l-3 -2007 -60 -23 c-33 -13 -69 -28
-80 -32 -61 -27 -162 -74 -177 -82 -10 -5 -23 -9 -30 -9 -7 0 -38 -12 -68 -26
-71 -34 -87 -41 -135 -58 -38 -13 -113 -47 -145 -65 -8 -5 -41 -17 -72 -26
-32 -10 -58 -22 -58 -27 0 -4 -9 -8 -19 -8 -11 0 -23 -4 -26 -10 -3 -5 -14
-10 -24 -10 -9 0 -27 -9 -39 -20 -12 -11 -33 -20 -47 -20 -14 0 -25 -4 -25 -9
0 -5 -18 -12 -40 -16 -22 -4 -40 -11 -40 -16 0 -5 -9 -9 -20 -9 -11 0 -20 -4
-20 -10 0 -5 -8 -10 -17 -10 -10 0 -30 -6 -44 -14 -14 -7 -37 -16 -52 -20 -15
-3 -27 -11 -27 -16 0 -6 -7 -10 -16 -10 -15 0 -73 -28 -84 -41 -3 -3 -22 -9
-44 -12 -21 -3 -50 -14 -65 -24 -27 -18 -71 -37 -129 -54 -19 -6 -48 -19 -65
-30 -37 -22 -69 -24 -100 -7 -29 16 -89 38 -105 38 -16 0 -69 22 -123 50 -19
10 -53 21 -75 25 -37 6 -89 25 -126 45 -10 6 -27 10 -38 10 -11 0 -20 4 -20
10 0 5 -18 13 -40 16 -22 4 -40 10 -40 14 0 4 -16 11 -35 14 -19 4 -35 11 -35
16 0 6 -13 10 -30 10 -16 0 -30 4 -30 10 0 5 -18 13 -40 16 -22 4 -43 11 -46
15 -3 5 -19 9 -35 9 -16 0 -39 9 -51 20 -12 11 -32 20 -44 20 -13 0 -26 5 -29
10 -3 6 -17 10 -31 10 -13 0 -24 4 -24 8 0 9 -48 27 -100 37 -19 4 -44 14 -55
21 -11 8 -29 14 -41 14 -12 0 -27 6 -33 14 -7 8 -41 22 -77 32 -36 9 -67 21
-70 26 -3 4 -15 8 -27 8 -12 0 -44 12 -72 25 -27 14 -60 25 -72 25 -12 0 -34
6 -50 14 -15 8 -39 18 -53 24 -14 5 -46 19 -71 31 l-46 21 -5 2028 c-4 1461
-2 2029 6 2034 6 4 804 8 1774 8 l1762 0 -2 -2007z"/>
<path d="M4580 10460 c0 -194 4 -350 9 -350 5 0 14 -15 22 -32 7 -18 20 -40
30 -48 9 -8 20 -26 24 -39 4 -13 18 -34 31 -46 13 -12 24 -27 24 -34 0 -6 5
-11 10 -11 6 0 10 -8 10 -18 0 -11 9 -30 21 -43 11 -13 32 -45 46 -71 14 -26
29 -48 33 -48 4 0 17 -21 30 -47 13 -27 33 -57 44 -68 12 -11 35 -47 51 -79
17 -33 35 -64 40 -70 18 -20 51 -70 75 -113 13 -24 27 -43 32 -43 4 0 8 -7 8
-15 0 -8 5 -15 10 -15 6 0 10 -6 10 -14 0 -8 6 -21 13 -28 18 -20 37 -50 43
-70 4 -10 10 -18 15 -18 5 0 9 -7 9 -15 0 -8 3 -15 8 -15 4 0 14 -15 21 -32 8
-18 25 -43 38 -56 13 -12 23 -29 23 -36 0 -8 7 -19 15 -26 8 -6 14 -15 13 -18
-3 -11 36 -71 49 -76 7 -3 23 17 38 47 14 29 29 59 34 67 5 8 16 31 24 50 57
128 70 156 77 160 4 3 15 26 25 53 10 26 22 47 26 47 5 0 9 7 9 16 0 8 11 35
25 60 14 25 25 54 25 64 0 11 4 20 10 20 5 0 12 11 16 25 3 13 12 29 20 36 8
6 14 20 14 30 0 11 4 19 8 19 5 0 15 18 22 40 7 22 16 40 20 40 4 0 13 18 20
40 7 22 19 45 27 51 7 6 13 22 13 34 0 13 3 25 8 27 4 2 18 26 31 53 14 28 27
52 30 55 11 9 31 50 31 62 0 13 51 119 61 128 3 3 13 21 22 40 63 142 82 180
89 180 4 0 8 13 8 29 0 16 4 31 9 33 5 2 40 64 77 138 37 74 71 137 76 138 4
2 8 15 8 28 0 13 4 24 9 24 5 0 12 14 16 30 4 17 10 30 15 30 4 0 10 11 12 25
5 25 5 25 -74 25 -85 0 -102 -8 -113 -53 -4 -15 -13 -31 -21 -38 -8 -6 -14
-24 -14 -39 0 -15 -6 -30 -14 -33 -7 -3 -26 -38 -42 -79 -16 -40 -32 -74 -36
-76 -5 -2 -8 -8 -8 -13 0 -6 -22 -56 -50 -112 -27 -56 -50 -110 -50 -119 0
-10 -4 -18 -8 -18 -10 0 -52 -85 -52 -105 0 -8 -4 -15 -10 -15 -5 0 -10 -7
-10 -15 0 -8 -11 -36 -24 -63 -14 -26 -35 -71 -48 -99 -13 -29 -26 -53 -30
-53 -5 0 -8 -9 -8 -20 0 -11 -4 -20 -8 -20 -5 0 -23 -37 -42 -82 -18 -46 -39
-90 -47 -99 -7 -8 -13 -25 -13 -36 0 -12 -7 -23 -15 -27 -8 -3 -15 -17 -15
-31 0 -14 -4 -25 -10 -25 -5 0 -10 -8 -10 -17 0 -9 -6 -24 -13 -32 -7 -9 -23
-41 -36 -71 -25 -58 -51 -114 -88 -183 -12 -23 -22 -48 -22 -54 -1 -18 -24
-16 -65 4 -34 16 -35 17 -20 44 8 16 14 31 14 34 -2 12 34 85 42 85 4 0 8 5 8
12 0 6 11 34 24 62 13 28 45 96 71 151 26 55 62 132 81 172 19 39 34 76 34 82
0 6 4 11 9 11 5 0 12 14 16 30 4 17 11 30 16 30 5 0 9 9 9 20 0 11 5 20 10 20
6 0 10 8 10 17 0 20 38 100 51 109 5 3 9 13 9 24 0 10 7 20 15 24 8 3 15 15
15 26 0 12 11 41 25 66 14 25 25 51 25 58 0 8 7 19 15 26 8 7 15 21 15 31 0
11 5 19 10 19 6 0 10 6 10 13 0 7 18 48 40 92 22 44 40 83 40 87 0 14 63 143
72 146 4 2 8 9 8 16 0 7 6 26 14 42 34 72 33 74 -31 74 -54 0 -59 -2 -69 -27
-7 -16 -14 -35 -18 -43 -3 -8 -17 -35 -31 -59 -14 -24 -25 -52 -25 -63 0 -10
-4 -18 -10 -18 -5 0 -10 -11 -10 -25 0 -14 -7 -28 -15 -31 -8 -4 -15 -12 -15
-18 0 -7 -11 -34 -24 -62 -13 -27 -26 -59 -30 -71 -4 -13 -12 -23 -17 -23 -5
0 -9 -7 -9 -15 0 -8 -13 -37 -30 -65 -16 -28 -30 -60 -30 -70 0 -11 -4 -20
-10 -20 -5 0 -10 -11 -10 -25 0 -14 -4 -25 -9 -25 -5 0 -12 -13 -16 -30 -4
-16 -10 -30 -15 -30 -5 0 -11 -13 -15 -30 -4 -16 -11 -32 -16 -35 -5 -4 -9
-15 -9 -25 0 -10 -4 -20 -8 -22 -4 -1 -20 -32 -35 -68 -15 -36 -34 -78 -42
-93 -8 -16 -15 -36 -15 -44 0 -9 -6 -21 -14 -27 -7 -6 -26 -42 -42 -81 -16
-38 -34 -76 -41 -83 -7 -7 -13 -22 -13 -33 0 -15 -7 -19 -30 -19 -28 0 -30 2
-24 27 4 15 13 34 21 41 7 7 13 24 13 38 0 13 5 24 10 24 6 0 10 5 10 11 0 6
13 39 29 73 46 97 61 133 61 145 0 6 3 11 8 11 9 0 23 30 64 133 17 42 35 77
39 77 5 0 9 9 9 20 0 11 4 20 10 20 5 0 9 3 9 8 -4 24 3 42 16 42 9 0 15 10
15 26 0 14 11 45 25 70 14 25 25 50 25 56 0 16 40 97 51 104 5 3 9 14 9 25 0
10 4 19 8 19 5 0 19 24 31 53 12 28 27 60 32 69 5 10 9 24 9 32 0 7 7 19 15
26 8 7 15 21 15 31 0 11 4 19 9 19 5 0 11 10 14 23 2 12 8 30 12 40 7 16 -28
17 -644 17 l-651 0 0 -350z"/>
<path d="M6490 10797 c0 -17 -28 -75 -40 -82 -5 -3 -11 -18 -15 -34 -3 -15
-14 -37 -23 -47 -9 -11 -18 -28 -20 -39 -3 -21 -23 -66 -33 -75 -11 -10 -49
-91 -49 -105 0 -8 -4 -15 -10 -15 -5 0 -10 -7 -10 -16 0 -8 -7 -22 -15 -30 -8
-9 -15 -24 -15 -35 0 -11 -6 -22 -14 -25 -8 -3 -17 -21 -20 -40 -4 -19 -10
-34 -15 -34 -9 0 -31 -45 -31 -65 0 -8 -13 -34 -30 -58 -16 -25 -30 -49 -30
-54 0 -5 -18 -44 -40 -86 -22 -41 -40 -83 -40 -91 0 -9 -4 -16 -10 -16 -5 0
-10 -8 -10 -19 0 -10 -7 -24 -15 -31 -8 -7 -15 -21 -15 -31 0 -11 -4 -19 -8
-19 -5 0 -16 -19 -26 -42 -10 -24 -24 -57 -32 -75 -8 -17 -14 -34 -14 -37 0
-3 423 -6 939 -6 847 0 939 2 945 16 3 9 6 40 6 70 l0 54 -437 -7 c-241 -3
-440 -9 -443 -13 -3 -4 -191 -10 -417 -14 l-413 -6 0 53 0 54 373 7 c753 14
1322 25 1330 25 4 1 7 26 7 56 0 54 -1 55 -29 55 -174 0 -1360 -21 -1433 -25
l-98 -6 0 26 c0 25 0 25 90 25 53 0 90 4 90 10 0 6 99 10 278 10 152 0 463 3
690 7 l412 6 0 409 0 408 -655 0 c-542 0 -655 -2 -655 -13z"/>
<path d="M4580 9770 c0 -81 4 -108 20 -140 11 -22 25 -40 30 -40 6 0 10 -11
10 -24 0 -13 7 -26 15 -30 8 -3 15 -14 15 -25 0 -10 7 -21 15 -25 8 -3 15 -12
15 -21 0 -8 5 -15 10 -15 6 0 10 -7 10 -15 0 -8 4 -15 10 -15 5 0 12 -11 16
-25 3 -14 10 -25 14 -25 4 0 13 -13 20 -30 7 -16 16 -30 20 -30 4 0 13 -15 21
-32 7 -18 20 -40 28 -48 22 -21 41 -56 41 -75 0 -8 6 -15 13 -15 6 0 30 -37
52 -81 22 -45 50 -92 62 -105 12 -13 34 -47 48 -76 15 -29 33 -60 41 -69 8 -8
14 -21 14 -27 0 -7 7 -12 15 -12 8 0 15 -9 15 -20 0 -11 5 -20 10 -20 6 0 10
-7 10 -16 0 -8 6 -22 13 -29 31 -35 37 -45 37 -60 0 -8 5 -15 10 -15 6 0 10
-7 10 -15 0 -8 5 -15 10 -15 6 0 10 -6 10 -13 0 -7 8 -22 18 -33 24 -26 65
-94 57 -94 -4 0 6 -17 23 -37 16 -21 44 -66 63 -100 18 -35 37 -63 41 -63 5 0
8 -7 8 -15 0 -8 3 -15 8 -15 4 0 18 -23 31 -50 l24 -51 -21 -15 c-12 -8 -28
-22 -37 -31 -14 -14 -18 -14 -26 -2 -5 8 -9 20 -9 27 0 6 -4 12 -9 12 -5 0
-13 10 -16 23 -4 12 -17 36 -29 52 -13 17 -25 38 -29 48 -3 9 -11 17 -18 17
-6 0 -9 6 -6 14 3 8 -1 20 -9 26 -8 7 -14 19 -14 26 0 8 -6 14 -12 14 -7 0
-24 23 -37 50 -13 28 -27 50 -32 50 -5 0 -9 7 -9 15 0 8 -4 15 -10 15 -5 0
-10 6 -10 14 0 7 -7 19 -15 26 -8 7 -15 21 -15 31 0 11 -4 19 -10 19 -5 0 -10
5 -10 11 0 6 -12 28 -28 48 -15 20 -38 56 -51 81 -14 25 -29 54 -35 65 -6 11
-17 24 -23 30 -14 11 -66 103 -84 148 -6 15 -16 27 -22 27 -7 0 -20 20 -30 44
-10 25 -27 55 -38 67 -10 12 -19 28 -19 36 0 7 -5 13 -10 13 -6 0 -17 12 -23
28 -20 43 -51 92 -59 92 -5 0 -8 9 -8 20 0 11 -3 20 -8 20 -4 0 -18 20 -32 45
-14 25 -28 45 -32 45 -5 0 -8 9 -8 19 0 10 -7 21 -15 25 -8 3 -15 12 -15 19 0
8 -7 20 -15 27 -13 11 -15 0 -15 -88 0 -84 4 -109 21 -142 12 -22 25 -40 30
-40 5 0 9 -9 9 -20 0 -11 4 -20 9 -20 5 0 12 -13 16 -29 3 -16 13 -32 21 -35
8 -3 14 -12 14 -21 0 -8 5 -15 10 -15 6 0 10 -9 10 -20 0 -11 4 -20 9 -20 5 0
13 -10 17 -22 4 -13 12 -27 19 -33 7 -5 25 -34 41 -64 27 -50 42 -74 69 -105
6 -6 11 -17 13 -24 1 -7 16 -31 32 -54 17 -22 30 -47 30 -55 0 -7 3 -13 8 -13
4 0 16 -18 26 -40 11 -22 23 -40 28 -40 4 0 8 -7 8 -15 0 -8 5 -15 11 -15 5 0
7 -4 4 -10 -3 -5 -3 -10 2 -10 4 0 21 -27 37 -60 16 -33 33 -60 38 -60 4 0 8
-7 8 -15 0 -8 5 -15 10 -15 6 0 10 -6 10 -14 0 -8 6 -21 13 -28 6 -7 21 -30
31 -51 11 -20 23 -37 28 -37 13 0 9 -30 -6 -46 -8 -8 -17 -14 -21 -14 -10 0
-30 23 -38 43 -3 9 -11 17 -17 17 -5 0 -10 5 -10 12 0 6 -6 19 -14 27 -7 9
-30 48 -51 86 -20 39 -41 72 -45 75 -4 3 -18 25 -31 50 -12 25 -44 80 -71 122
-26 43 -48 82 -48 88 0 5 -6 10 -14 10 -7 0 -16 12 -19 28 -3 15 -15 38 -26
51 -11 13 -23 32 -26 42 -4 11 -10 19 -15 19 -4 0 -11 11 -14 25 -4 14 -11 25
-16 25 -6 0 -10 9 -10 20 0 11 -4 20 -10 20 -5 0 -10 7 -10 15 0 8 -7 15 -15
15 -8 0 -15 9 -15 19 0 11 -7 26 -15 35 -8 8 -15 19 -15 25 0 6 -4 11 -9 11
-5 0 -15 16 -21 35 -6 19 -16 35 -21 35 -11 0 -12 -223 -2 -743 l6 -377 443 0
c284 0 445 -4 449 -10 9 -15 305 -13 305 1 0 14 -41 83 -52 87 -4 2 -8 8 -8
13 0 5 -8 18 -17 28 -35 39 -43 50 -43 66 0 8 -4 15 -10 15 -5 0 -10 6 -10 14
0 7 -7 19 -15 26 -8 7 -15 21 -15 32 0 10 -4 17 -8 14 -4 -3 -17 12 -28 32
-21 41 -23 43 -59 88 -14 18 -25 36 -25 41 0 6 -13 29 -30 51 -16 23 -30 46
-30 52 0 5 -4 10 -8 10 -5 0 -16 18 -26 40 -10 22 -21 40 -25 40 -4 0 -16 19
-27 43 -21 47 -22 49 -63 96 -17 19 -35 47 -42 63 -6 15 -15 28 -20 28 -5 0
-9 9 -9 20 0 11 -4 20 -8 20 -5 0 -17 16 -28 35 -10 19 -22 35 -26 35 -5 0 -8
6 -8 14 0 7 -15 33 -33 57 -18 24 -44 66 -57 92 -14 27 -40 65 -57 85 -18 20
-33 43 -33 50 0 13 -47 90 -66 107 -6 6 -22 30 -35 55 -13 25 -30 49 -36 53
-7 4 -13 16 -13 26 0 11 -7 21 -15 25 -8 3 -15 12 -15 19 0 8 -11 26 -25 41
-14 15 -25 34 -25 42 0 7 -4 14 -10 14 -5 0 -10 5 -10 11 0 6 -6 17 -12 24
-29 32 -36 43 -42 63 -4 12 -12 22 -17 22 -5 0 -9 9 -9 21 0 11 -4 18 -9 15
-5 -3 -14 8 -21 24 -23 56 -30 42 -30 -60z"/>
<path d="M7026 9458 c-299 -7 -365 -12 -328 -25 6 -3 12 -11 12 -19 0 -8 7
-14 15 -14 8 0 15 -7 15 -15 0 -8 4 -15 10 -15 5 0 12 -11 16 -25 3 -14 12
-25 18 -25 7 0 19 -11 26 -25 7 -14 17 -25 21 -25 4 0 10 -11 13 -25 4 -14 13
-25 21 -25 8 0 15 -6 15 -14 0 -8 7 -16 15 -20 8 -3 21 -18 28 -33 6 -15 21
-37 32 -48 11 -12 29 -34 40 -50 11 -16 28 -37 38 -47 9 -10 17 -22 17 -26 0
-5 10 -18 23 -29 28 -26 57 -61 57 -71 0 -4 14 -21 30 -39 17 -18 30 -34 30
-37 0 -7 39 -54 63 -75 9 -8 17 -19 17 -24 0 -4 11 -18 25 -31 14 -13 25 -26
25 -30 0 -4 14 -20 30 -36 17 -16 30 -34 30 -40 0 -6 18 -30 40 -52 22 -23 40
-45 40 -50 0 -4 18 -26 40 -50 22 -24 40 -49 40 -55 0 -7 5 -13 10 -13 6 0 10
-7 10 -15 0 -8 7 -15 15 -15 8 0 15 -7 15 -15 0 -8 4 -15 10 -15 5 0 16 -12
24 -27 8 -16 26 -40 40 -55 14 -15 26 -30 26 -33 0 -3 14 -19 30 -35 17 -16
30 -34 30 -40 0 -5 5 -10 10 -10 6 0 10 -9 10 -20 0 -11 7 -20 15 -20 23 0 21
171 -2 211 -10 16 -21 29 -25 29 -4 0 -8 5 -8 10 0 6 -13 24 -30 40 -16 16
-30 32 -30 35 0 4 -6 12 -12 19 -7 7 -31 35 -53 61 -22 27 -46 54 -52 61 -7 7
-13 15 -13 18 0 6 -17 28 -55 72 -11 12 -40 48 -64 78 -24 31 -48 56 -52 56
-5 0 -9 4 -9 10 0 10 -21 38 -57 76 -13 13 -23 26 -23 29 0 3 -13 19 -30 35
-16 16 -30 32 -30 35 0 3 -8 13 -17 23 -27 28 -54 63 -79 99 -12 18 -24 29
-28 26 -3 -4 -6 0 -6 8 0 13 -26 47 -88 114 -16 17 -40 47 -53 68 -14 20 -29
34 -32 30 -4 -3 -7 7 -7 23 0 23 7 34 32 48 l31 19 40 -44 c22 -24 51 -61 65
-81 13 -21 29 -38 33 -38 5 0 9 -4 9 -9 0 -5 17 -27 38 -49 51 -55 62 -70 62
-80 0 -4 13 -19 30 -32 16 -14 29 -31 30 -37 0 -7 5 -13 10 -13 6 0 10 -9 10
-20 0 -11 4 -20 8 -20 12 0 52 -35 52 -45 0 -4 11 -18 25 -31 14 -13 25 -26
25 -29 0 -3 8 -13 18 -23 29 -31 57 -66 102 -128 23 -32 55 -70 70 -84 15 -14
37 -41 50 -60 13 -19 36 -47 52 -63 15 -15 28 -32 28 -37 0 -6 5 -10 10 -10 6
0 10 -6 10 -14 0 -8 7 -16 15 -20 13 -4 15 7 15 72 0 75 -1 79 -35 115 -19 20
-35 41 -35 45 0 4 -15 24 -32 43 -18 19 -49 55 -68 79 -19 24 -43 51 -52 59
-10 9 -18 21 -18 27 0 7 -3 14 -7 16 -5 2 -30 31 -58 65 -27 35 -53 63 -57 63
-5 0 -8 5 -8 11 0 7 -13 25 -30 41 -16 15 -30 32 -30 36 0 4 -16 25 -35 45
-19 20 -35 39 -35 42 0 3 -18 22 -40 44 -22 21 -40 43 -40 49 0 6 -7 17 -15
26 -14 14 -14 17 2 35 17 20 17 20 55 -22 20 -23 38 -46 38 -50 0 -12 27 -37
39 -37 5 0 13 -9 16 -20 3 -11 11 -20 16 -20 5 0 9 -9 9 -20 0 -11 7 -20 15
-20 8 0 15 -4 15 -8 0 -7 28 -43 73 -92 7 -8 24 -31 37 -50 13 -19 34 -45 47
-57 13 -12 23 -26 23 -31 0 -4 10 -18 23 -29 26 -24 57 -61 57 -69 0 -3 18
-23 40 -45 22 -22 40 -44 40 -49 0 -12 32 -50 42 -50 5 0 8 182 8 405 l0 406
-222 -3 c-123 -1 -371 -6 -552 -10z"/>
<path d="M5830 9436 c0 -8 -3 -16 -8 -18 -9 -4 -72 -140 -72 -156 0 -7 -4 -12
-10 -12 -5 0 -10 -7 -10 -15 0 -8 -4 -15 -8 -15 -10 0 -52 -85 -52 -105 0 -8
-4 -15 -10 -15 -5 0 -10 -8 -10 -17 0 -10 -7 -27 -15 -37 -8 -11 -15 -28 -15
-37 0 -10 -4 -19 -8 -21 -8 -3 -105 -200 -116 -235 -4 -13 -13 -23 -19 -23 -8
0 -8 -3 -2 -8 6 -4 19 -25 30 -47 11 -22 30 -50 42 -62 13 -12 23 -30 23 -39
0 -9 11 -27 24 -39 13 -12 27 -32 31 -43 3 -12 11 -22 16 -22 5 0 9 -7 9 -15
0 -8 5 -15 10 -15 6 0 10 -8 10 -19 0 -10 7 -24 15 -31 8 -7 15 -16 15 -21 0
-5 13 -22 29 -38 16 -17 33 -40 37 -53 9 -30 75 -128 85 -128 5 0 9 -11 9 -25
0 -14 5 -25 10 -25 6 0 15 -11 20 -25 5 -14 14 -25 20 -25 5 0 10 -7 10 -15 0
-8 5 -15 10 -15 6 0 10 -11 10 -25 l0 -25 345 0 c223 0 345 4 345 10 0 6 8 10
18 10 13 0 22 12 31 40 6 22 16 40 21 40 4 0 11 14 15 30 4 17 11 30 16 30 5
0 9 7 9 15 0 8 4 15 9 15 5 0 11 18 15 40 3 22 10 40 15 40 4 0 16 20 25 45
10 25 21 43 26 40 5 -3 11 13 15 34 4 22 13 45 21 52 8 6 14 17 14 24 0 7 9
24 20 38 11 14 23 40 27 59 3 18 9 35 13 38 3 3 29 50 57 106 47 95 49 102 34
121 -9 12 -27 36 -41 54 -14 18 -33 41 -42 51 -10 10 -18 21 -18 26 0 4 -21
29 -45 56 -25 27 -45 53 -45 57 0 5 -15 24 -34 42 -18 19 -37 44 -41 56 -3 11
-11 21 -16 21 -5 0 -9 4 -9 10 0 5 -12 22 -27 38 -16 16 -39 43 -53 62 -14 18
-32 41 -40 50 -49 59 -86 105 -93 116 -12 21 -697 20 -697 0z"/>
<path d="M7130 8648 c0 -10 -4 -18 -10 -18 -5 0 -10 -5 -10 -11 0 -16 -72
-163 -82 -167 -4 -2 -8 -8 -8 -14 0 -16 -72 -163 -81 -166 -5 -2 -9 -11 -9
-19 0 -16 -60 -144 -71 -153 -4 -3 -10 -20 -14 -38 -3 -18 -10 -30 -15 -27 -4
2 -15 -16 -25 -40 -9 -25 -20 -45 -25 -45 -5 0 -11 -18 -15 -40 -4 -22 -11
-40 -16 -40 -5 0 -9 -7 -9 -16 0 -8 -7 -22 -15 -30 -8 -9 -15 -24 -15 -35 0
-10 -4 -19 -9 -19 -5 0 -14 -15 -22 -32 -7 -18 -15 -35 -19 -38 -11 -9 -30
-61 -30 -80 0 -11 -6 -20 -14 -20 -8 0 -17 -13 -21 -30 -4 -16 -11 -30 -16
-30 -5 0 -9 -5 -9 -10 0 -6 -18 -48 -40 -95 -22 -47 -40 -89 -40 -95 0 -5 -4
-10 -10 -10 -5 0 -10 -9 -10 -19 0 -11 -4 -22 -9 -25 -12 -7 -71 -134 -71
-151 0 -8 -4 -15 -10 -15 -5 0 -10 -11 -10 -25 0 -16 -6 -25 -15 -25 -9 0 -15
-9 -15 -25 0 -14 -7 -28 -15 -31 -8 -4 -15 -17 -15 -30 0 -13 -4 -24 -10 -24
-5 0 -10 -9 -10 -19 0 -11 -4 -21 -8 -23 -5 -1 -39 -65 -77 -141 -37 -76 -72
-140 -76 -143 -5 -3 -9 -15 -9 -28 0 -12 -5 -27 -10 -32 -20 -20 -49 -86 -43
-100 3 -7 20 -16 39 -20 19 -3 34 -11 34 -16 0 -13 30 27 49 65 8 15 18 27 23
27 4 0 8 7 8 16 0 18 51 117 63 122 4 2 7 15 7 28 0 13 3 24 8 24 4 0 12 9 17
19 54 106 125 253 125 257 0 3 7 12 15 20 8 9 15 24 15 35 0 10 5 19 10 19 6
0 10 5 10 10 0 16 121 260 129 260 4 0 13 20 20 45 7 25 16 45 21 45 4 0 12
18 19 40 6 22 16 40 21 40 4 0 11 14 15 30 4 17 11 30 16 30 5 0 9 7 9 15 0 8
4 15 9 15 5 0 12 18 16 40 4 22 10 40 13 40 4 0 22 31 41 68 18 37 38 74 43
82 4 8 15 29 24 45 8 17 22 41 29 55 8 14 15 33 15 43 0 9 4 17 9 17 8 0 24
37 22 53 -1 4 3 7 8 7 5 0 12 11 15 25 4 14 11 25 16 25 6 0 10 11 10 24 0 14
5 28 11 31 11 7 89 169 89 186 0 15 46 10 60 -6 7 -8 19 -15 26 -15 8 0 14 -9
14 -20 0 -11 -4 -20 -10 -20 -5 0 -10 -9 -10 -20 0 -11 -4 -20 -10 -20 -5 0
-10 -6 -10 -14 0 -7 -6 -19 -14 -25 -8 -7 -18 -26 -21 -42 -4 -16 -11 -29 -16
-29 -5 0 -9 -7 -9 -15 0 -17 -20 -56 -33 -66 -5 -3 -7 -8 -5 -10 4 -5 -122
-262 -132 -269 -4 -3 -11 -19 -14 -37 -4 -17 -14 -37 -22 -44 -8 -6 -14 -17
-14 -23 0 -7 -8 -21 -19 -32 -10 -11 -21 -37 -25 -57 -4 -20 -11 -37 -16 -37
-6 0 -10 -7 -10 -15 0 -8 -4 -15 -9 -15 -5 0 -12 -11 -15 -25 -4 -14 -11 -25
-16 -25 -5 0 -13 -18 -16 -40 -4 -22 -10 -40 -15 -40 -5 0 -9 -9 -9 -19 0 -10
-7 -21 -15 -25 -8 -3 -15 -17 -15 -31 0 -14 -4 -25 -8 -25 -9 0 -72 -131 -72
-149 0 -6 -4 -11 -10 -11 -5 0 -12 -11 -16 -24 -3 -14 -12 -27 -19 -29 -7 -3
-15 -17 -19 -31 -4 -15 -27 -67 -51 -118 -25 -50 -45 -97 -45 -104 0 -8 -4
-14 -10 -14 -5 0 -18 -20 -28 -44 -11 -24 -25 -47 -31 -50 -6 -4 -11 -20 -11
-37 0 -16 -4 -29 -10 -29 -5 0 -10 -7 -10 -15 0 -8 -4 -15 -10 -15 -5 0 -14
-18 -20 -40 -6 -22 -15 -40 -20 -40 -6 0 -10 -7 -10 -15 0 -8 -4 -15 -10 -15
-5 0 -10 -11 -10 -25 0 -14 -4 -25 -10 -25 -5 0 -10 -4 -10 -10 0 -14 23 -12
56 5 16 8 37 15 47 15 9 0 17 5 17 10 0 6 9 10 20 10 11 0 20 4 20 9 0 5 13
11 29 14 25 5 34 18 70 100 22 52 41 99 41 106 0 6 4 11 9 11 5 0 15 16 21 35
6 19 15 35 19 35 3 0 13 20 20 45 7 25 16 45 21 45 4 0 13 18 20 40 7 22 17
40 22 40 4 0 8 9 8 19 0 11 7 26 15 35 8 8 15 24 15 35 0 12 4 21 10 21 5 0
13 18 16 40 4 22 10 40 14 40 4 0 15 19 26 43 10 23 24 48 31 55 7 7 13 24 13
38 0 13 4 24 9 24 5 0 16 18 24 39 9 22 20 42 26 45 5 3 12 25 16 48 4 23 16
51 26 62 11 11 25 37 31 58 6 21 15 38 20 38 4 0 8 6 8 14 0 8 23 59 50 115
28 56 50 108 50 116 0 8 4 15 9 15 5 0 12 10 16 23 8 30 58 131 67 135 4 2 10
19 14 38 5 25 11 34 21 30 8 -3 19 -6 24 -6 15 0 10 -50 -6 -56 -8 -4 -15 -14
-15 -24 0 -10 -7 -31 -15 -46 -8 -16 -15 -37 -15 -46 0 -10 -4 -18 -9 -18 -5
0 -17 -20 -27 -45 -9 -25 -21 -45 -25 -45 -5 0 -9 -6 -9 -14 0 -8 -11 -36 -24
-63 -13 -26 -30 -65 -37 -85 -7 -21 -16 -38 -20 -38 -4 0 -10 -13 -14 -30 -4
-16 -11 -30 -16 -30 -5 0 -8 -3 -7 -7 1 -5 -15 -43 -35 -86 -20 -42 -37 -82
-37 -87 0 -6 -4 -10 -10 -10 -5 0 -10 -8 -10 -18 0 -9 -9 -33 -20 -52 -11 -19
-25 -47 -31 -62 -6 -16 -15 -28 -20 -28 -5 0 -9 -7 -9 -16 0 -8 -20 -57 -45
-108 -25 -52 -45 -101 -45 -110 0 -9 -4 -16 -10 -16 -5 0 -10 -7 -10 -16 0 -8
-7 -22 -15 -30 -8 -9 -15 -24 -15 -35 0 -11 -7 -27 -15 -36 -9 -8 -19 -28 -22
-44 -3 -16 -9 -29 -13 -29 -4 0 -13 -15 -20 -32 -16 -44 -54 -122 -61 -128 -3
-3 -8 -13 -12 -22 -9 -26 3 -24 70 10 13 7 30 12 38 12 8 0 15 4 15 9 0 5 34
20 75 32 41 13 75 27 75 31 0 5 7 8 15 8 8 0 36 11 62 25 27 13 84 38 128 56
44 17 84 35 90 40 5 5 18 9 28 9 11 0 34 8 51 19 17 10 48 24 69 31 20 6 37
16 37 21 0 5 11 9 24 9 14 0 28 5 31 10 3 6 13 10 21 10 7 0 43 14 77 30 35
17 69 30 75 30 7 0 12 5 12 10 0 6 10 10 23 10 23 0 109 39 115 53 2 4 15 7
28 7 13 0 24 4 24 10 0 5 11 12 25 16 l25 6 0 380 0 379 -25 23 c-14 13 -25
29 -25 35 0 7 -17 29 -39 50 -21 21 -42 48 -46 59 -3 12 -11 22 -16 22 -5 0
-9 4 -9 10 0 5 -18 27 -40 47 -22 21 -40 43 -40 49 0 12 -32 53 -77 101 -13
13 -23 27 -23 31 0 4 -8 15 -17 24 -33 31 -50 53 -69 86 -10 17 -21 32 -25 32
-4 0 -26 27 -50 60 -24 33 -47 60 -51 60 -5 0 -8 7 -8 15 0 8 -4 15 -10 15 -5
0 -12 11 -16 25 -3 14 -10 25 -15 25 -4 0 -22 15 -38 33 -24 24 -31 28 -31 15z"/>
<path d="M4590 7802 l0 -59 243 -6 c133 -4 496 -10 807 -13 311 -4 594 -9 630
-13 l65 -6 3 -44 3 -44 -618 6 c-340 4 -734 10 -875 14 l-258 6 0 -60 0 -60
143 -6 c78 -4 424 -7 768 -7 562 0 627 -2 633 -16 11 -28 6 -52 -10 -58 -22
-9 -147 -7 -367 3 -106 6 -411 12 -679 15 l-488 6 0 -225 0 -225 25 -6 c14 -3
25 -10 25 -15 0 -5 15 -9 34 -9 19 0 38 -4 41 -10 3 -5 17 -10 31 -10 13 0 24
-4 24 -9 0 -9 117 -51 143 -51 9 0 17 -4 17 -10 0 -5 10 -10 23 -10 12 0 31
-7 41 -15 11 -8 26 -15 33 -15 7 0 36 -11 65 -25 28 -14 64 -25 80 -25 15 0
28 -4 28 -9 0 -5 26 -17 58 -27 31 -9 62 -21 67 -25 6 -4 33 -13 60 -19 45
-10 90 -28 165 -65 14 -7 40 -15 57 -18 18 -4 52 -16 75 -27 23 -11 50 -20 59
-20 10 0 21 -4 24 -10 3 -5 15 -10 26 -10 19 0 59 -18 69 -32 3 -3 21 -8 40
-10 33 -3 35 -1 69 67 19 39 38 72 43 73 4 2 8 9 8 16 0 7 9 31 20 54 11 22
20 45 20 50 0 5 6 15 14 21 8 7 18 26 21 42 4 16 11 29 16 29 5 0 9 11 9 25 0
14 4 25 10 25 5 0 12 11 16 25 3 13 12 29 20 36 8 6 14 20 14 30 0 11 9 28 19
38 11 11 23 36 27 55 3 21 12 36 20 36 8 0 14 10 14 24 0 14 7 31 15 40 8 8
15 22 15 30 0 9 5 16 10 16 6 0 10 7 10 16 0 17 41 97 53 102 4 2 7 8 7 13 0
5 16 42 35 82 19 39 35 78 35 84 0 7 4 13 10 13 5 0 12 11 16 25 3 14 10 25
14 25 4 0 11 11 14 25 4 14 24 62 46 107 l40 83 -313 6 c-171 4 -619 9 -994
13 l-683 6 0 -58z"/>
<path d="M4490 5325 l0 -75 55 0 55 0 0 75 0 75 -55 0 -55 0 0 -75z"/>
<path d="M4281 4830 l-2 -340 286 0 285 0 0 340 0 340 -80 0 -80 0 0 -153 c0
-168 3 -177 57 -177 32 0 33 -1 33 -40 0 -35 -3 -40 -22 -41 -63 -3 -84 4
-115 37 l-32 34 -7 170 -7 170 -47 0 -48 0 -4 -162 c-5 -154 -17 -218 -40
-218 -5 0 -8 -7 -8 -15 0 -22 -30 -34 -57 -22 -13 5 -23 16 -23 23 0 7 -6 14
-12 17 -9 3 -6 10 8 23 29 26 36 64 39 220 l2 134 -62 0 -63 0 -1 -340z"/>
<path d="M5035 3992 c-25 -18 -36 -58 -36 -137 -1 -59 3 -88 13 -98 26 -27 60
-39 92 -33 46 9 66 57 66 155 0 68 -3 80 -23 99 -23 22 -90 30 -112 14z"/>
<path d="M7005 3990 c-3 -5 -5 -30 -4 -55 l3 -45 38 0 c27 0 40 5 48 19 12 23
13 51 2 69 -10 16 -79 25 -87 12z"/>
<path d="M8553 2753 c-64 -22 -121 -52 -100 -53 11 0 20 -10 24 -30 6 -34 19
-37 49 -12 23 19 87 112 76 111 -4 0 -26 -7 -49 -16z"/>
</g>
</svg>
